/* XPM */
static const char *TreeList16_xpm[] = {
"16 16 5 1 0 0",
"  c #000000",
"! c #808080",
"# c #C0C0C0",
"$ c #FFFFFF",
"% c None",
"##$#############",
"##$#############",
"##$#############",
"##$##  #####  ##",
"##$$$  !!!!!  ##",
"##$##  #####  ##",
"##$#############",
"##$#############",
"##$##  #####  ##",
"##$$$  !!!!!  ##",
"#####  #####  ##",
"######$#########",
"######$##  #  ##",
"######$$$  !  ##",
"#########  #  ##",
"################"
};
