/* XPM */
static const char *ImageButton32_xpm[] = {
"32 32 24 1 0 0",
"  c #000000",
"! c #402000",
"# c #602000",
"$ c #404040",
"% c #604040",
"& c #804040",
"' c #606040",
"( c #806040",
") c #A06040",
"* c #A08040",
"+ c #606080",
", c #806080",
"- c #808080",
". c #A08080",
"/ c #C08080",
"0 c #A0A080",
"1 c #C0A080",
"2 c #E0C080",
"3 c #A0A0A4",
"8 c #C0C0C0",
"5 c #C0DCC0",
"6 c #FFFBF0",
"7 c #FFFFFF",
"4 c None",
"44444444444444444444444444444444",
"44444444444444444444444444444444",
"44444444444444444444444444444444",
"44444444444444444444444444444444",
"44444444444444444444444444444444",
"477777777777777777777777777777$4",
"47555555555555555555555555555-$4",
"47555555555555555555555555555-$4",
"47555555555555555555555555555-$4",
"47554666666666666666666666455-$4",
"47555.&%&&&%&&%&%%%%%%%%%4555-$4",
"47556()....******)))))))&4555-$4",
"47556(*167751..//...****(4555-$4",
"47556(.477771/11///..../)4555-$4",
"47556(.45555111111..++.1*4555-$4",
"47556(044444111112,-,,(1.4555-$4",
"47556'.44444444140'-,,.4.4555-$4",
"47556%(-(((((((((%%'%%'(%4555-$4",
"47556%%%%%%%%#!##%$$$$!!!4655-$4",
"47556%%(((((((((((((%%(-,4555-$4",
"47556%(.)((()(()(()((((((4355-$4",
"47555.('''''''''''(('''''-455-$4",
"47555544544454555555555555455-$4",
"47555555555555555555555555555-$4",
"47555555555555555555555555555-$4",
"47555555555555555555555555555-$4",
"47----------------------------$4",
"4$$$$$$$$$$$$$$$$$$$$$$$$$$$$$$4",
"44444444444444444444444444444444",
"44444444444444444444444444444444",
"44444444444444444444444444444444",
"44444444444444444444444444444444"
};
