/* XPM */
static char *image[] = {
"16 16 24 1 0 0",
"  c #000000",
"! c #204040",
"# c #404040",
"$ c #206040",
"% c #406040",
"& c #606040",
"' c #408040",
"( c #606080",
") c #608080",
"* c #808080",
"+ c #40A080",
", c #60A080",
"- c #80A080",
". c #60C080",
"/ c #80C080",
"0 c #A0A0A4",
"1 c #C0A0C0",
"2 c #80C0C0",
"3 c #A0C0C0",
"4 c #C0C0C0",
"5 c #C0DCC0",
"6 c #FFFBF0",
"7 c #FFFFFF",
"8 c None",
"((**********&444",
"5455555555554444",
"5-555555555556#4",
"50-000000000004(",
"5036-------**-50",
"5005+.0.,,,+++00",
"5005,164/.,,,,00",
"5005,464///)).00",
"5005-33333))&200",
"5005,0000-#))-00",
"6005$%%$$$$!!$00",
"*005%''''''')-30",
"4405%'%%%%%$-40*",
"44(66666666640*4",
"44############44",
"4444444444444444"
};
