/* XPM */
static const char *ImageButton16_xpm[] = {
"16 16 17 1 0 0",
"  c #000000",
"! c #404040",
"# c #604040",
"$ c #606040",
"% c #806040",
"& c #A06040",
"' c #A08040",
"( c #606080",
") c #806080",
"* c #808080",
"+ c #A08080",
", c #C08080",
"- c #C0A080",
"1 c #C0C0C0",
"/ c #FFFBF0",
"0 c #FFFFFF",
". c None",
"................",
"................",
"................",
".0000000000000 .",
".0$//////////( .",
".0(%++'''&&&.* .",
".0(%.0--,,+,.* .",
".0(%..---))-.* .",
".0(#*%%%%##%.* .",
".0(#%%%%%%#*.* .",
".0(+$$$$$%$$** .",
".0.((((((((!** .",
"..            ..",
"................",
"................",
"................"
};
