/* XPM */
static const char *BitmapCombo16_xpm[] = {
"16 16 20 1 0 0",
"  c #000000",
"! c #402000",
"# c #602000",
"$ c #404040",
"% c #604040",
"& c #804040",
"' c #806040",
"( c #A06040",
") c #A08040",
"* c #606080",
"+ c #806080",
", c #808080",
"- c #A08080",
". c #C08080",
"/ c #C0A080",
"4 c #A0A0A4",
"1 c #C0C0C0",
"2 c #C0DCC0",
"3 c #FFFFFF",
"0 c None",
"0000000000000000",
"$$$$$$$$$$$$$$$2",
"$333333,,,,,,,12",
"$&&&%%%,,,,,,,12",
"$(-))((,333333,2",
"$)3-.)),322222,2",
"$-3..-.,322222,2",
"$-2//*/,32   2,2",
"$-111+1,322 22,2",
"$''''%',312212,2",
"$%%##$!,312212,2",
"$%'''%,,,,,,,,,2",
"$''''''$$$$$$$$2",
"$333333$$$$$$$$2",
"2222222222222222",
"0000000000000000"
};
