/* XPM */
static const char *BitmapCombo32_xpm[] = {
"32 32 23 1 0 0",
"  c #000000",
"! c #402000",
"# c #602000",
"$ c #404040",
"% c #604040",
"& c #804040",
"' c #606040",
"( c #806040",
") c #A06040",
"* c #A08040",
"+ c #606080",
", c #806080",
"- c #808080",
". c #A08080",
"/ c #C08080",
"0 c #A0A080",
"1 c #C0A080",
"7 c #A0A0A4",
"3 c #C0C0C0",
"4 c #C0DCC0",
"5 c #FFFBF0",
"6 c #FFFFFF",
"2 c None",
"22222222222222222222222222222222",
"22222222222222222222222222222222",
"--------------------------------",
"-$$$$$$$$$$$$$$$$$$$$$$$$$$$$$$4",
"-$$$$$$$$$$$$$$$$$$$$$$$$$$$$$$4",
"-$6666666666644444444444444444$4",
"-$&&&&%%%%%%64666666666666666-$4",
"-$&&&&%%%%%%64666666666666666-$4",
"-$)..***)))&64644444444444444-$4",
"-$)..***)))&64644444444444444-$4",
"-$*561./.**(64644444444444444-$4",
"-$*561./.**(64644444444444444-$4",
"-$.6611//..)64644444444444444-$4",
"-$.6611//..)646444       4444-$4",
"-$.44111.+.*646444       4444-$4",
"-$.44111.+.*6464444     44444-$4",
"-$033111,,(.64644444   444444-$4",
"-$033111,,(.646444444 4444444-$4",
"-$.33333',..646444444 4444444-$4",
"-$.33333',..64644444444444444-$4",
"-$((((((%%'%64644444444444444-$4",
"-$((((((%%'%64644444444444444-$4",
"-$%%%%!#$$!!64644444444444444-$4",
"-$%%%%!#$$!!64644444444444444-$4",
"-$%((((((%(,64644444444444444-$4",
"-$%((((((%(,64644444444444444-$4",
"-$()()(()(((64----------------$4",
"-$()()(()(((6$$$$$$$$$$$$$$$$$$4",
"-$66666666666$$$$$$$$$$$$$$$$$$4",
"-4444444444444444444444444444444",
"22222222222222222222222222222222",
"22222222222222222222222222222222"
};
