/* XPM */
static const char *ImageList32_xpm[] = {
"32 32 27 1 0 0",
"  c #000000",
"! c #204040",
"# c #404040",
"$ c #206040",
"% c #406040",
"& c #606040",
"' c #408040",
"( c #40A040",
") c #606080",
"* c #608080",
"+ c #808080",
", c #40A080",
"- c #60A080",
". c #80A080",
"/ c #60C080",
"0 c #80C080",
"1 c #A0A0A4",
"2 c #A0A0C0",
"3 c #C0A0C0",
"4 c #E0A0C0",
"5 c #80C0C0",
"6 c #A0C0C0",
"7 c #C0C0C0",
"8 c #C0DCC0",
"9 c #FFFBF0",
": c #FFFFFF",
"; c None",
"77777777777777777777777777777777",
"11111111111111111111111111177777",
"11111111111111111111111111177777",
"19999999999999999999999991111777",
"199*1111111111111111111111111777",
"19919999999999999999999999991777",
"19919999999999999999999999991777",
"19919**1111111111111111111111111",
"19919119999999999999999999999991",
"19919119.'''''''%''%'%%%%%%%*881",
"19919119.'''''''%''%'%%%%%%%*881",
"19919119'----..-----,,,,,,,(%991",
"19919119%0017992-//------,,,%991",
"19919119'003:::40000///-----'881",
"19919119'003:::40000///-----'881",
"19919119'66799970000000**///'881",
"19919119'666733666665++*&..0'991",
"19919119'668666866661&&+&**6'881",
"19919119'668666866661&&+&**6'881",
"19919119%66666666111)&&+&..1%991",
"19919119%%%%%%%%$$$$$##$#$$$%991",
"19919119%'''%''%%%%%%$$!$!!%%991",
"19919119%'''%''%%%%%%$$!$!!%%991",
"11119119%'''''''''''''''%**+.771",
"77719119%--------------''7777111",
"77711119+%%%%%%%%%%%%%%%%7771111",
"77711119+%%%%%%%%%%%%%%%%7771111",
"7771111999999999999999999111+++7",
"777111111111111111111111111+)777",
"77777777777777777777777777777777",
"77777777777777777777777777777777",
"77777777777777777777777777777777"
};
