/* XPM */
static const char *ImageList16_xpm[] = {
"16 16 23 1 0 0",
"  c #000000",
"! c #204040",
"# c #206040",
"$ c #406040",
"% c #606040",
"& c #408040",
"' c #40A040",
"( c #608080",
") c #808080",
"* c #40A080",
"+ c #60A080",
", c #80A080",
"- c #60C080",
". c #80C080",
"/ c #A0A0A4",
"0 c #C0A0C0",
"1 c #E0A0C0",
"2 c #A0C0C0",
"3 c #C0C0C0",
"4 c #C0DCC0",
"5 c #FFFBF0",
"6 c #FFFFFF",
"7 c None",
"/////////////333",
"555555555555//33",
"5/55555555555533",
"5/(/////////////",
"5//5&&&&&$$$$$4/",
"5//5++,+++***'5/",
"5//5.061..-+++4/",
"5//52353...(--4/",
"5//5242422%)(24/",
"5//52222//%),/5/",
"5//5&&&$$$#!!$5/",
"///5&&&&&&&&()3/",
"3//5$$$$$$$$33//",
"3//555555555//)3",
"3333333333333333",
"3333333333333333"
};
