/* XPM */
static const char *ImagePanel16_xpm[] = {
"16 16 19 1 0 0",
"  c #000000",
"! c #048204",
"# c #FCFE04",
"$ c #810209",
"% c #2F6117",
"& c #64372E",
"' c #049E3C",
"( c #44027C",
") c #7C3E7C",
"* c #447E7C",
"+ c #04BE7C",
", c #7CFE7C",
"- c #11D1BC",
". c #0802F5",
"/ c #08FEF8",
"0 c #3C3EFC",
"1 c #0C7EFC",
"2 c #FFFFFF",
"3 c None",
"////////-+!!!+-/",
"//##///-!''%$%!-",
"/,##,//!'+!--$'!",
"//##//+'$!%*/$+!",
"///////-/'//&&/!",
"/////////-/-$-/-",
"//////////-$&///",
"1111111111$$1111",
".0.(((((($$$..00",
"..$$$$$$$$$$$$..",
"($$$$$$$$$$$$$$.",
".$$$$)..$$$$$$$.",
"....0....00(((..",
"..........00..00",
"..0.01.0.....00.",
"................"
};
