/* XPM */
static const char *ImagePanel32_xpm[] = {
"32 32 12 1 0 0",
"  c #000000",
"! c #800000",
"# c #008000",
"$ c #FFFF00",
"% c #800080",
"& c #008080",
"' c #808080",
"( c #C0C0C0",
") c #0000FF",
"* c #00FFFF",
"+ c #FFFFFF",
", c None",
"******************&&######&&****",
"******************&&######&&****",
"****$$$$********########!!####**",
"****$$$$********########!!####**",
"**(($$$$((****####&&##****!!####",
"**(($$$$((****####&&##****!!####",
"****$$$$****&&##!!####''**!!&&##",
"****$$$$****&&##!!####''**!!&&##",
"******************##****!!!!**##",
"******************##****!!!!**##",
"************************!!******",
"************************!!******",
"**********************!!!!******",
"**********************!!!!******",
"&&&&&&&&&&&&&&&&&&&&!!!!&&&&&&&&",
"&&&&&&&&&&&&&&&&&&&&!!!!&&&&&&&&",
"))))))%%%%%%%%%%%%!!!!!!))))))))",
"))))))%%%%%%%%%%%%!!!!!!))))))))",
"))))!!!!!!!!!!!!!!!!!!!!!!!!))))",
"))))!!!!!!!!!!!!!!!!!!!!!!!!))))",
"%%!!!!!!!!!!!!!!!!!!!!!!!!!!!!))",
"%%!!!!!!!!!!!!!!!!!!!!!!!!!!!!))",
"))!!!!!!!!%%))))!!!!!!!!!!!!!!))",
"))!!!!!!!!%%))))!!!!!!!!!!!!!!))",
"))))))))))))))))))))))%%%%%%))))",
"))))))))))))))))))))))%%%%%%))))",
"))))))))))))))))))))))))))))))))",
"))))))))))))))))))))))))))))))))",
"))))))))))&&))))))))))))))))))))",
"))))))))))&&))))))))))))))))))))",
"))))))))))))))))))))))))))))))))",
"))))))))))))))))))))))))))))))))"
};
