/* XPM */
static const char *ImageTreeCtrl16_xpm[] = {
"16 16 10 1 0 0",
"  c #000000",
"! c #800000",
"# c #FF0000",
"$ c #008000",
"% c #00FF00",
"& c #008080",
"' c #808080",
"( c #C0C0C0",
") c #FFFFFF",
"* c None",
"((((('$$$$&&((((",
"(((($$%%&$$$&(((",
"(((&$&$$$$&&%&((",
"((&$$$$$$$$$%%&(",
"('$$$&&$$$&%%$$(",
"(&$&%$%&$$&$$$$'",
"($$&$$$$$$&$$&$'",
"(%&%&$%$$&$$&$&(",
"(%&$&$$&$$%$&&$'",
"((&('(&'!'%(%&((",
"((#)(((!!'((((((",
"((#'(((!!'((((((",
"(((((('!!!((((((",
"((((((!!!!((((((",
"(((((!!!!!!(((((",
"(((('!!!!!!!(((("
};
