/* XPM */
static const char *Image16_xpm[] = {
"16 16 25 1 0 0",
"  c #000000",
"! c #204040",
"# c #404040",
"$ c #206040",
"% c #406040",
"& c #606040",
"' c #408040",
"( c #40A040",
") c #606080",
"* c #608080",
"+ c #808080",
", c #40A080",
"- c #60A080",
". c #80A080",
"/ c #60C080",
"0 c #80C080",
"1 c #A0A0A4",
"2 c #E0A0C0",
"3 c #80C0C0",
"4 c #A0C0C0",
"5 c #C0C0C0",
"6 c #C0DCC0",
"7 c #FFFBF0",
"8 c #FFFFFF",
"9 c None",
"1111111111111111",
"7777777777777771",
"7.''''%'%%%%%%61",
"7%--.---,,,,((71",
"7%0882000/----71",
"7'377500000*/-61",
"7'45544443+&.071",
"7'66464441&&*461",
"7%4444111)&&.171",
"7%%%%%$$$#$#$$71",
"7%''%%%%%%$$!$71",
"7%'''''''''%*+51",
"7%---------'5511",
"7+%%%%%%%%%%5511",
"7777777777771111",
"1111111111111111"
};
