/* XPM */
static const char *Image32_xpm[] = {
"32 32 27 1 0 0",
"  c #000000",
"! c #204040",
"# c #404040",
"$ c #206040",
"% c #406040",
"& c #606040",
"' c #408040",
"( c #40A040",
") c #606080",
"* c #608080",
"+ c #808080",
", c #40A080",
"- c #60A080",
". c #80A080",
"/ c #60C080",
"0 c #80C080",
"1 c #A0A0A4",
"2 c #A0A0C0",
"3 c #C0A0C0",
"4 c #E0A0C0",
"5 c #80C0C0",
"6 c #A0C0C0",
"7 c #C0C0C0",
"8 c #C0DCC0",
"9 c #FFFBF0",
": c #FFFFFF",
"; c None",
"11111111111111111111111111111111",
"11111111111111111111111111111111",
"19999999999999999999999999999991",
"19999999999999999999999999999991",
"199.'''''''''%%'%%%%%%'%%%%%*881",
"199.'''''''''%%'%%%%%%'%%%%%*881",
"199%-----.-------,,,,,,,,(((%991",
"199%-----.-------,,,,,,,,(((%991",
"199'00177922----/--------,,,%881",
"199%003:::440000000/--------'991",
"199%003:::440000000/--------'991",
"199'557999770000000000***/--'881",
"199'557999770000000000***/--'881",
"199'6667776666666665++*&&.00'991",
"199'6667776666666665++*&&.00'991",
"199'8868868886666661&&.&&*66'881",
"199'8868868886666661&&.&&*66'881",
"199%666666661111111)&&+&&.11%991",
"199%666666661111111)&&+&&.11%991",
"199%%%%%%%%%$$$$$$$#$$###$$$%991",
"199%%%%%%%%%$$$$$$$#$$###$$$%991",
"199%'''''%%%%%%%%%%%$$!$$!$$%991",
"199%'''''%%%%%%%%%%%$$!$$!$$%991",
"199%'''''''''''''''''''%%*++.771",
"199%------------------'''7777111",
"199%------------------'''7777111",
"199+%%%%%%%%%%%%%%%%%%%%%7771111",
"199+%%%%%%%%%%%%%%%%%%%%%7771111",
"1999999999999999999999999111+111",
"1999999999999999999999999111+111",
"11111111111111111111111111111111",
"11111111111111111111111111111111"
};
