/* XPM */
static const char *ALARMRNG_xpm[] = {
/* width height num_colors chars_per_pixel */
"    32    16       16            1",
/* colors */
"` c #000000",
". c #800000",
"# c #008000",
"a c #808000",
"b c #000080",
"c c #800080",
"d c #008080",
"e c #7f7f7f",
"f c #bfbfbf",
"g c #ff0000",
"h c #00ff00",
"i c #ffff00",
"j c #0000ff",
"k c #ff00ff",
"l c #00ffff",
"m c #ffffff",
/* pixels */
"a`ii`ai`ia`ii`aaaeaaeaaeaaeaaeaa",
"aa`ii`i`i`ii`aaaaaeaaeaemeameama",
"`ae``iiiii``ea`aaaeeeamamaeeemaa",
"i`eff``i``ffe`iaaeammeaaaeammeaa",
"`ffffee`effffe`aeamaaaeeeamaaaea",
"`ffe```````fee`aemaaeeeeeeeaaaem",
"`````ggggg`````aeeeeemmmmmeeeeem",
"ii``gfm`mfg``iiaameemmaeaaaeemmm",
"`e`gf`m`m`fg`e`aaaemmeaemeaaemaa",
"i`ggmmm`mmmgg`iaaeamaamemamaaeaa",
"a`g`m```mm``g`aaaemeaaaemaeeaema",
"a`ggmmmmmmmgg`aaaemamaeamaammema",
"ae`gf`mmm`fg`eaaaaeaaeamaeaaeama",
"aa``gfm`mfg``aaaaaeeaameaameemaa",
"aa.```g`g```.aaaaaaeeeaemeeemmaa",
"a``.a`````a.``aaaeeameeeeemmeeaa"
};
