/* XPM */
static const char *ALARM_xpm[] = {
/* width height num_colors chars_per_pixel */
"    32    16       16            1",
/* colors */
"` c #000000",
". c #800000",
"# c #008000",
"a c #808000",
"b c #000080",
"c c #800080",
"d c #008080",
"e c #7f7f7f",
"f c #bfbfbf",
"g c #ff0000",
"h c #00ff00",
"i c #ffff00",
"j c #0000ff",
"k c #ff00ff",
"l c #00ffff",
"m c #ffffff",
/* pixels */
"aaaaaaaaaaaaaaaaaaaaaaaaaaaaaaaa",
"aaaaaa```aaaaaaaaaaaaaeeeaaaaaaa",
"aae``aa`aa``eaaaaaeeeaaemmeeeaaa",
"a`eff`e`e`ffe`aaaeammeaemeammeaa",
"`ffffee`effffe`aeamaaaeeeamaaaea",
"`ffe```````fee`aemaaeeeeeeeaaaem",
"`````ggggg`````aeeeeemmmmmeeeeem",
"aa``gfm`mfg``aaaameemmaeaaaeemmm",
"ae`gf`m`m`fg`eaaaaemmeaemeaaemaa",
"a`ggmmm`mmmgg`aaaeamaamemamaaeaa",
"a`g`mmm`mm``g`aaaemeaaaemaeeaema",
"a`ggmm`mmmmgg`aaaemamaeamaammema",
"ae`gf`mmm`fg`eaaaaeaaeamaeaaeama",
"aa``gfm`mfg``aaaaaeeaameaameemaa",
"aa.```g`g```.aaaaaaeeeaemeeemmaa",
"a``.a`````a.``aaaeeameeeeemmeeaa"
};
