/* XPM */
static const char *ARROW3U_xpm[] = {
/* width height num_colors chars_per_pixel */
"    32    16       16            1",
/* colors */
"` c #000000",
". c #800000",
"# c #008000",
"a c #808000",
"b c #000080",
"c c #800080",
"d c #008080",
"e c #7f7f7f",
"f c #bfbfbf",
"g c #ff0000",
"h c #00ff00",
"i c #ffff00",
"j c #0000ff",
"k c #ff00ff",
"l c #00ffff",
"m c #ffffff",
/* pixels */
"aaaaaaaaa`aaaaaaaaaaaaaaeaaaaaaa",
"aaaaaaaa`i`aaaaaaaaaaaaeaeaaaaaa",
"aaaaaaaa`m`aaaaaaaaaaaaememaaaaa",
"aaaaaaa``i`aaaaaaaaaaaeememaaaaa",
"aaaaa``m`m`aaaaaaaaaeeaememaaaaa",
"aaaa`i`i`i`aaaaaaaaeaemememaaaaa",
"aaaa`m`m`m``aaaaaaaemememeeaaaaa",
"aaaa`imimi`i`aaaaaaemamamemeaaaa",
"aaaa`mimim`m`aaaaaaemaaaaememaaa",
"aaaa`imimimi`aaaaaaemaaaaamemaaa",
"aaaaa`imimi`aaaaaaaaeaaaaaeamaaa",
"aaaa````````aaaaaaaeeeeeeeemaaaa",
"aaaa`llllll`aaaaaaaemmmmmmemaaaa",
"aaa`````````aaaaaaeeeeeeeeemaaaa",
"aaa`i```````aaaaaaemeeeeeeemaaaa",
"aaa`````````aaaaaaeeeeeeeeemaaaa"
};
