/* XPM */
static const char *ARROW1UL_xpm[] = {
/* width height num_colors chars_per_pixel */
"    32    16       16            1",
/* colors */
"` c #000000",
". c #800000",
"# c #008000",
"a c #808000",
"b c #000080",
"c c #800080",
"d c #008080",
"e c #7f7f7f",
"f c #bfbfbf",
"g c #ff0000",
"h c #00ff00",
"i c #ffff00",
"j c #0000ff",
"k c #ff00ff",
"l c #00ffff",
"m c #ffffff",
/* pixels */
"aaaaaaaaaaaaaaaaaaaaaaaaaaaaaaaa",
"aaaaaaaaaaaaaaaaaaaaaaaaaaaaaaaa",
"a``aaaaaaaaaaaaaaeeaaaaaaaaaaaaa",
"a`g``aaaaaaaaaaaaemeeaaaaaaaaaaa",
"aa`gg``aaaaaaaaaaaemmeeaaaaaaaaa",
"aa`gggg``aaaaaaaaaemammeeaaaaaaa",
"aaa`ggggg``eaaaaaaaeaaammeeeaaaa",
"aaa`gggggg`aaaaaaaaemaaaamemmaaa",
"aaaa`gggg`aaaaaaaaaaeaaaaemaaaaa",
"aaaa`gggg`eaaaaaaaaaemaaaeeaaaaa",
"aaaaa`g``g`eaaaaaaaaaeaeeaeeaaaa",
"aaaaa``ae`g`eaaaaaaaaeemeeaeeaaa",
"aaaaaeaaae`g`eaaaaaaaemameeaeeaa",
"aaaaaaaaaae`g`aaaaaaaamaameeaema",
"aaaaaaaaaaae`eaaaaaaaaaaaameeema",
"aaaaaaaaaaaaaaaaaaaaaaaaaaammmaa"
};
