/* XPM */
static const char *BOOKOPEN_xpm[] = {
/* width height num_colors chars_per_pixel */
"    32    16       16            1",
/* colors */
"` c #000000",
". c #800000",
"# c #008000",
"a c #808000",
"b c #000080",
"c c #800080",
"d c #008080",
"e c #7f7f7f",
"f c #bfbfbf",
"g c #ff0000",
"h c #00ff00",
"i c #ffff00",
"j c #0000ff",
"k c #ff00ff",
"l c #00ffff",
"m c #ffffff",
/* pixels */
"aaaaaaaaaaaaaaaaaaaaaaaaaaaaaaaa",
"aaaaaaaaaaaaaaaaaaaaaaaaaaaaaaaa",
"aaaaa```aaaaaaaaaaaaaeeeaaaaaaaa",
"aaaa`mmm`aaaaaaaaaaaeammeaaaaaaa",
"aaa`mmmmm```aaaaaaaeamaaaeeeaaaa",
"aa`mmmmm`mmm``aaaaeamaaaeammeeaa",
"a`mmmmm`mmmmmm`aaeamaaaeamaaamea",
"`mmmmm`mmmmmm`m`eamaaaeamaaaaeae",
"``mmm`mmmmmm`m`jeeaaaeamaaaaeaee",
"ja`m`mmmmmm`m`jaemeaeamaaaaeaeem",
"ajj`mmmmmm`m`jaaaeeeamaaaaeaeema",
"aaaj``mmm`m`jaaaaameeeaaaeaeemaa",
"aaaaja`m`m`jaaaaaaaaemeaeaeemaaa",
"aaaaajj`m`jaaaaaaaaaaeeeaeemaaaa",
"aaaaaaaj`jaaaaaaaaaaaameeemaaaaa",
"aaaaaaaaaaaaaaaaaaaaaaaammaaaaaa"
};
