/* XPM */
static const char *CALCULAT_xpm[] = {
/* width height num_colors chars_per_pixel */
"    32    16       16            1",
/* colors */
"` c #000000",
". c #800000",
"# c #008000",
"a c #808000",
"b c #000080",
"c c #800080",
"d c #008080",
"e c #7f7f7f",
"f c #bfbfbf",
"g c #ff0000",
"h c #00ff00",
"i c #ffff00",
"j c #0000ff",
"k c #ff00ff",
"l c #00ffff",
"m c #ffffff",
/* pixels */
"aae`````````eaaaaaaeeeeeeeeeaaaa",
"aa`fffffffff`aaaaaeammmmmmmmeaaa",
"aa`fffffffff`aaaaaemaaaaaaaaemaa",
"aa`f```````f`aaaaaemeeeeeeeaemaa",
"aa`f```l`l`f`aaaaaememmmmmememaa",
"aa`f```````f`aaaaaemeeeeeeememaa",
"aa`fffffffff`aaaaaemammmmmmmemaa",
"aa`f`f`f`f`f`aaaaaemeaeaeaeaemaa",
"aa`fffffffff`aaaaaemamamamamemaa",
"aa`f`f`f`f`f`aaaaaemeaeaeaeaemaa",
"aa`fffffffff`aaaaaemamamamamemaa",
"aa`f`f`f`f`f`aaaaaemeaeaeaeaemaa",
"aa`fffffffff`aaaaaemamamamamemaa",
"aa`f`f`fgggf`aaaaaemeaeaeeeaemaa",
"aa`fffffffff`aaaaaemamamammmemaa",
"aae`````````eaaaaaaeeeeeeeeeamaa"
};
