/* XPM */
static const char *CLEAR_xpm[] = {
/* width height num_colors chars_per_pixel */
"    32    16       16            1",
/* colors */
"` c #000000",
". c #800000",
"# c #008000",
"a c #808000",
"b c #000080",
"c c #800080",
"d c #008080",
"e c #7f7f7f",
"f c #bfbfbf",
"g c #ff0000",
"h c #00ff00",
"i c #ffff00",
"j c #0000ff",
"k c #ff00ff",
"l c #00ffff",
"m c #ffffff",
/* pixels */
"cccccccccccccc`iccccccccccccccec",
"ccccccccccccc`iicccccccccccccecm",
"ccc`cccccccc`iiiccceccccccccecmc",
"ccccccccccc`iiiaccccmccccccecmcc",
"cccc`ccccc`i`iaaccccecccccececcc",
"ccccccccc`i`i`a`cccccmcccececece",
"cc``c`cc`g`i`a`ccceececceeececec",
"c``c`cc`ggg`a`ccceemecmeeeeececm",
"c``ccc`gggg.`cccceemcmeeeeeeecmc",
"cccc`c`ggg.`ccccccmmeceeeeeemmcc",
"cc``c`c`..`ccccccceemeceeeemmccc",
"c``cc``c``ccccccceemmeeceemmcccc",
"``ccc``ccccccccceemmceemcmmccccc",
"``cc```cc`cccccceemceeemcecccccc",
"````````ccc`cccceeeeeeeeccmecccc",
"c````c```cccccccceeeemeeecccmccc"
};
