/* XPM */
static const char *CRDFILE3_xpm[] = {
/* width height num_colors chars_per_pixel */
"    32    16       16            1",
/* colors */
"` c #000000",
". c #800000",
"# c #008000",
"a c #808000",
"b c #000080",
"c c #800080",
"d c #008080",
"e c #7f7f7f",
"f c #bfbfbf",
"g c #ff0000",
"h c #00ff00",
"i c #ffff00",
"j c #0000ff",
"k c #ff00ff",
"l c #00ffff",
"m c #ffffff",
/* pixels */
"ccc```ccccccccccccceeecccccccccc",
"cc`mmm```````cccccecmmeeeeeeeccc",
"cc`mmmmmmmmm```cccemcccmmmmmeeec",
"cc`m```m``mm`m`cccemeeeceeccemem",
"```mmmmmmmmm`m``eeemcmmmcmmcemee",
"`g`mmmmmmmmm``g`ememcccccccceece",
"`g``m`````m```g`emeeceeeeeceeeme",
"```mmmmmmmmm````eeemmcmmmmmceeee",
"c`mmmmmmmmm`m`f`cemmccccccceceme",
"c`m``m``mmm`m`f`cemeeceecccememe",
"`mmmmmmmmm`m``f`ecmcmmcmmceceeme",
"``````````m`m`f`eeeeeeeeeececeme",
"c`f`mmmmmm`c`ff`cememmmmmmececme",
"`f``````````ff`ceceeeeeeeeeecmec",
"`ffffffffffff`ccemcmmmmmmmmmmecm",
"c````````````cccceeeeeeeeeeeecmc"
};
