/* XPM */
static const char *CUT_xpm[] = {
/* width height num_colors chars_per_pixel */
"    32    16       16            1",
/* colors */
"` c #000000",
". c #800000",
"# c #008000",
"a c #808000",
"b c #000080",
"c c #800080",
"d c #008080",
"e c #7f7f7f",
"f c #bfbfbf",
"g c #ff0000",
"h c #00ff00",
"i c #ffff00",
"j c #0000ff",
"k c #ff00ff",
"l c #00ffff",
"m c #ffffff",
/* pixels */
"aaaaaaaa``````aaaaaaaaaaeeeeeeaa",
"aaaaaaaa`mmm`m`aaaaaaaaaemmmemea",
"aaajjjaa`m`m`mm`aaaeeeaaemeaemae",
"aaj```aa`mmm````aaeeeemaemameeee",
"aaj`aj`a`m`mmmm`aaeemeeaemeaamme",
"aaj`aj`a`mmmmmm`aaeemeememamaaae",
"aaaj`j`a`m``m`m`aaaeeeememeeaeae",
"aaaaa``a`mmmmmm`aaaameememammame",
"ajjjjj``````````aeeeeeeeeeeeeeee",
"jj`````meeeeeee`eeeeeeeeeeeeeeee",
"j`aaj`a`eemmmmm`eemmeemeeemmmmme",
"j`jj`aaa`ee`````eeeeemmaeeeeeeee",
"aj``aaaaa`eeaaaaaeeemmaaaeeemmmm",
"aaaaaaaaaa`eeaaaaammmaaaaaeeeaaa",
"aaaaaaaaaaa``aaaaaaaaaaaaaaeemaa",
"aaaaaaaaaaaaaaaaaaaaaaaaaaaammaa"
};
