/* XPM */
static const char *DATE_xpm[] = {
/* width height num_colors chars_per_pixel */
"    32    16       16            1",
/* colors */
"` c #000000",
". c #800000",
"# c #008000",
"a c #808000",
"b c #000080",
"c c #800080",
"d c #008080",
"e c #7f7f7f",
"f c #bfbfbf",
"g c #ff0000",
"h c #00ff00",
"i c #ffff00",
"j c #0000ff",
"k c #ff00ff",
"l c #00ffff",
"m c #ffffff",
/* pixels */
"a``````````aaaaaaeeeeeeeeeeaaaaa",
"a`mmmmmmmm``aaaaaemmmmmmmmeeaaaa",
"a`gggggggg`m`aaaaeeeeeeeeeemeaaa",
"a`mmmmmmmm`mm`aaaemmmmmmmmemaeaa",
"a`mmmmmmmm````aaaemaaaaaaaeeeema",
"a`m`mm`mm`m`m`aaaemeaaeaaeaemema",
"a`m`m`m`m`e`m`aaaememeaeaeeemema",
"a`m`m```m`e`m`aaaememeeemeeemema",
"a```m`m`m`m`m`aaaeeemememememema",
"a`mmmmmmmmmmm`aaaemmmamamamamema",
"a`mmmmm`mmmmm`aaaemaaaaeaaaaaema",
"a`mmmm``mmmmm`aaaemaaaeemaaaaema",
"a`mmmmm`mmmmm`aaaemaaaaemaaaaema",
"a`mmmm```mmmm`aaaemaaaeeeaaaaema",
"a`mmmmmmmmmmm`aaaemaaaammmaaaema",
"a`````````````aaaeeeeeeeeeeeeema"
};
