/* XPM */
static const char *DOCSTACK_xpm[] = {
/* width height num_colors chars_per_pixel */
"    32    16       16            1",
/* colors */
"` c #000000",
". c #800000",
"# c #008000",
"a c #808000",
"b c #000080",
"c c #800080",
"d c #008080",
"e c #7f7f7f",
"f c #bfbfbf",
"g c #ff0000",
"h c #00ff00",
"i c #ffff00",
"j c #0000ff",
"k c #ff00ff",
"l c #00ffff",
"m c #ffffff",
/* pixels */
"```````ccccccccceeeeeeeccccccccc",
"`m```````cccccccemeeeeeeeccccccc",
"`m`m```````cccccememeeeeeeeccccc",
"`m`m`m```````cccemememeeeeeeeccc",
"`m`m`m`mmmmm``ccememememmmmmeecc",
"`m`m`m`m``mm`m`cememememeeccemec",
"`m`m`m`mmmmm````ememememcmmceeee",
"`m`m`m`m```mmmm`ememememeeeccmme",
"`m`m`m`mmmmmmmm`ememememcmmmccce",
"`m`m`m`m``````m`ememememeeeeeece",
"`m`m`m`mmmmmmmm`ememememcmmmmmme",
"`m`m`m`m``````m`ememememeeeeeece",
"```m`m`mmmmmmmm`eeemememcmmmmmme",
"cc```m`m````mmm`cmeeememeeeeccce",
"cccc```mmmmmmmm`cccmeeemcmmmmcce",
"cccccc``````````cccccmeeeeeeeeee"
};
