/* XPM */
static const char *DOCSINGL_xpm[] = {
/* width height num_colors chars_per_pixel */
"    32    16       16            1",
/* colors */
"` c #000000",
". c #800000",
"# c #008000",
"a c #808000",
"b c #000080",
"c c #800080",
"d c #008080",
"e c #7f7f7f",
"f c #bfbfbf",
"g c #ff0000",
"h c #00ff00",
"i c #ffff00",
"j c #0000ff",
"k c #ff00ff",
"l c #00ffff",
"m c #ffffff",
/* pixels */
"cccccccccccccccccccccccccccccccc",
"cccccccccccccccccccccccccccccccc",
"ccc```````cccccccceeeeeeeccccccc",
"ccc`mmmmm``cccccccemmmmmeecccccc",
"ccc`m``mm`m`ccccccemeeccemeccccc",
"ccc`mmmmm````cccccemcmmceeeecccc",
"ccc`m```mmmm`cccccemeeeccmmemccc",
"ccc`mmmmmmmm`cccccemcmmmcccemccc",
"ccc`m``````m`cccccemeeeeeecemccc",
"ccc`mmmmmmmm`cccccemcmmmmmmemccc",
"ccc`m``````m`cccccemeeeeeecemccc",
"ccc`mmmmmmmm`cccccemcmmmmmmemccc",
"ccc`m````mmm`cccccemeeeecccemccc",
"ccc`mmmmmmmm`cccccemcmmmmccemccc",
"ccc``````````ccccceeeeeeeeeemccc",
"cccccccccccccccccccmmmmmmmmmmccc"
};
