/* XPM */
static const char *EDIT_xpm[] = {
/* width height num_colors chars_per_pixel */
"    32    16       16            1",
/* colors */
"` c #000000",
". c #800000",
"# c #008000",
"a c #808000",
"b c #000080",
"c c #800080",
"d c #008080",
"e c #7f7f7f",
"f c #bfbfbf",
"g c #ff0000",
"h c #00ff00",
"i c #ffff00",
"j c #0000ff",
"k c #ff00ff",
"l c #00ffff",
"m c #ffffff",
/* pixels */
"aaa`aa```````aaaaaaeaaeeeeeeeaaa",
"aa`g`a`mmmmm``aaaaeeeaemmmmmeeaa",
"aaa`i``mmmmm`m`aaaaemeemaaaaemea",
"aaaa`i`mm``m`mm`aaaaeaemaeeaemae",
"aaaaa`i`mmmm````aaaaaeaeaammeeee",
"aaa````i`mmmmmm`aaaeeeeaeaaaamme",
"```imi``i`mm``m`eeeammeeaeaaeeae",
"l`im```````mmmm`eemmeeeeeeeaamme",
"l`mimimimim`mmm`eemaammmmmmeaaae",
"l`imim`````i`mm`eemaaaeeeeeaeaae",
"l`mimimim`m``mm`eemaaaammemeemae",
"l`imim```mmmm`m`eemaaaeeeamameae",
"l``imimi`mmmmmm`eeeaaaamemaaaame",
"``a`````mm`m``m`eemeeeeeameaeeae",
"aaaaaa`mmmmmmmm`ammammemmaamamme",
"aaaaaa``````````aaaaaaeeeeeeeeee"
};
