/* XPM */
static const char *ERASE_xpm[] = {
/* width height num_colors chars_per_pixel */
"    32    16       16            1",
/* colors */
"` c #000000",
". c #800000",
"# c #008000",
"a c #808000",
"b c #000080",
"c c #800080",
"d c #008080",
"e c #7f7f7f",
"f c #bfbfbf",
"g c #ff0000",
"h c #00ff00",
"i c #ffff00",
"j c #0000ff",
"k c #ff00ff",
"l c #00ffff",
"m c #ffffff",
/* pixels */
"cc```ccccccc`ccccceeeccccccceccc",
"c`````cccccc`cccceeeeeccccccemcc",
"`````l`cccc`f`cceeeeemeccccececc",
"````lll`````i`cceeeemmceeeeememc",
"```lll`imim`i`cceeemmcecmmmememc",
"c`lll`imi`i`i`cccemmcecmcecememc",
"cc`l`imimi``i`ccccececmccceememc",
"ccc``mimimi`i`ccccceemcccccememc",
"cccc`imim`mi``ccccccemcccecceemc",
"cccc`mimim`mi`ccccccemcccceccemc",
"ccccc`mi`im`m`cccccccecceccecemc",
"cccccc`mi`````ccccccccecceeeeemc",
"ccccccc``ccii`ccccccccceecmeeemc",
"ccccccccccc`a`ccccccccccmmcememc",
"eeeeeeececcgggceeeeeeeececceeeme",
"cccccccccccccccccmmmmmmmcmccmmmc"
};
