/* XPM */
static const char *FCABSHUT_xpm[] = {
/* width height num_colors chars_per_pixel */
"    32    16       16            1",
/* colors */
"` c #000000",
". c #800000",
"# c #008000",
"a c #808000",
"b c #000080",
"c c #800080",
"d c #008080",
"e c #7f7f7f",
"f c #bfbfbf",
"g c #ff0000",
"h c #00ff00",
"i c #ffff00",
"j c #0000ff",
"k c #ff00ff",
"l c #00ffff",
"m c #ffffff",
/* pixels */
"cccccce```````ccccccccceeeeeeecc",
"ccccc``aiaia``ccccccceecmmmmeemc",
"ccc``iaiaia``cccccceecmmccceemmc",
"cc`eeeeeee```cccccecmmcccceeemcc",
"cc`````````a`ccccceeeeeeeeememcc",
"ccc`iiiii`aa`ccccccemmmmmemmemcc",
"ccc`iiiii`aa`ccccccemccccemcemcc",
"ccc`i```i`aa`ccccccemeeecemcemcc",
"ccc`iiiii`aa`ccccccemcmmmemcemcc",
"ccc```````aa`cccccceeeeeeemcemcc",
"ccc`iiiii`aa`ccccccemmmmmemcemcc",
"ccc`iiiii`aa``cccccemccccemceecc",
"ccc`i```i`a`f`cccccemeeecemeeemc",
"ccc`iiiii``f`ccccccemcmmmeeeemmc",
"cc````````f`cccccceeeeeeeeeemmcc",
"cc`````````ccccccceeeeeeeeemmccc"
};
