/* XPM */
static const char *FDRAWER1_xpm[] = {
/* width height num_colors chars_per_pixel */
"    32    16       16            1",
/* colors */
"` c #000000",
". c #800000",
"# c #008000",
"a c #808000",
"b c #000080",
"c c #800080",
"d c #008080",
"e c #7f7f7f",
"f c #bfbfbf",
"g c #ff0000",
"h c #00ff00",
"i c #ffff00",
"j c #0000ff",
"k c #ff00ff",
"l c #00ffff",
"m c #ffffff",
/* pixels */
"cccccccccc``````cccccccccceeeeee",
"cccccccccc`aiai`ccccccccccemmmme",
"cccccccccc`iaii`ccccccccccemccce",
"c```cccccc`aiii`ceeeccccccemccce",
"c`i`cmcmcm`iiii`cememececeemccce",
"c`i`eeeeee`iiii`cemeeeeeeeemccce",
"c`i`cmcmcm`iiii`cememememeemccce",
"c`i`cmcmcm`iiii`cememememeemccce",
"c`i`cmcmcm`iiii`cememememeemccce",
"c`i````````iiii`cemeeeeeeeemccce",
"c`i`eeeeee`iiia`cememmmmmmemccce",
"c`i`eeeeee`iiai`cememcccccemccce",
"``i`ee`````iaia`eememceeeeemccce",
"c`i`e`ffff`aiai`cememecmmmemccce",
"c`i`ee`````aaaa`cemeeeeeeeemccce",
"c```cccccc``````ceeemmmmmmeeeeee"
};
