/* XPM */
static const char *FDRAWER2_xpm[] = {
/* width height num_colors chars_per_pixel */
"    32    16       16            1",
/* colors */
"` c #000000",
". c #800000",
"# c #008000",
"a c #808000",
"b c #000080",
"c c #800080",
"d c #008080",
"e c #7f7f7f",
"f c #bfbfbf",
"g c #ff0000",
"h c #00ff00",
"i c #ffff00",
"j c #0000ff",
"k c #ff00ff",
"l c #00ffff",
"m c #ffffff",
/* pixels */
"cc````````````cccceeeeeeeeeeeecc",
"cc`eeeeee```e`ccccemmmmmmeeememc",
"cc```````mmm``cccceeeeeeecmmeemc",
"cc`meeemmmmmm`ccccemeeemmmcccemc",
"cc``mmm```````cccceecmmeeeeeeemc",
"c``mmmmmmmmmm``cceemmcccmmmmmeec",
"````````````````eeeeeeeeeeeeeeee",
"`iiiiiiiiiiiiii`emmmmmmmmmmmmmme",
"`iiii```````iii`emccceeeeeeeccce",
"`iiii`mmmmm`iii`emcccemmmmmemcce",
"`iiii```````iii`emccceeeeeeemcce",
"`iiiiiiiiiiiiii`emccccmmmmmmmcce",
"`iii`eeiiiee`ii`emcceeccccceecce",
"`iiii```````iii`emccceeeeeeemmce",
"`iiiiiiiiiiiiii`emccccmmmmmmmcce",
"c``````````````cceeeeeeeeeeeeeec"
};
