/* XPM */
static const char *FONTITAL_xpm[] = {
/* width height num_colors chars_per_pixel */
"    32    16       16            1",
/* colors */
"` c #000000",
". c #800000",
"# c #008000",
"a c #808000",
"b c #000080",
"c c #800080",
"d c #008080",
"e c #7f7f7f",
"f c #bfbfbf",
"g c #ff0000",
"h c #00ff00",
"i c #ffff00",
"j c #0000ff",
"k c #ff00ff",
"l c #00ffff",
"m c #ffffff",
/* pixels */
"aaaaaagggggaaaaaaaaaaaeeeeeaaaaa",
"aaagageaaaegagaaaaaeaeemmmeeaeaa",
"aaaggaaaaaaaggaaaaaeeammaaaaeema",
"aaagggaaaaagggaaaaaeeeaaaaaeeema",
"aaageaaaaaaaegaaaaaeemmaaaaaeema",
"aaaaaaaaaaaaaaaaaaaammaaaaaaamma",
"aa`eaaaaaaaaaa`aaaeeaaaaaaaaaaea",
"aa``aaaaaaaaa``aaaeemaaaaaaaaeem",
"ae``eaaaaaaaa``aaeeeeaaaaaaaaeem",
"a`a`eaaaaaaa`e`aaemeemaaaaaaeeem",
"a`a``aaaaaa`ae`aaemeemaaaaaeaeem",
"e````eaaaa`````aeeeeeeaaaaeeeeem",
"`aaa``aaae`aae`aemmmeemaaeemmeem",
"``a````a```aa```eeaeeeeaeeemaeee",
"aaaaaaaaaaaaaaaaammammmmammmaamm",
"aaaaaaaaaaaaaaaaaaaaaaaaaaaaaaaa"
};
