/* XPM */
static const char *GEARS_xpm[] = {
/* width height num_colors chars_per_pixel */
"    32    16       16            1",
/* colors */
"` c #000000",
". c #800000",
"# c #008000",
"a c #808000",
"b c #000080",
"c c #800080",
"d c #008080",
"e c #7f7f7f",
"f c #bfbfbf",
"g c #ff0000",
"h c #00ff00",
"i c #ffff00",
"j c #0000ff",
"k c #ff00ff",
"l c #00ffff",
"m c #ffffff",
/* pixels */
"`ef```ee`aaaaaaaeaaeeeaaeaaaaaaa",
"`f`efe`e```aaaaaemeammeaeeeaaaaa",
"ef`f`e`eee`aaaaaamemeaemamemaaaa",
"`f`eee`e```aaaa`eaemamemeeemaaae",
"`ee```ee`aae`ea`emaeeeamemmmeaae",
"``eeeee``ea`e```eeaammmeemaeaeee",
"e```e```e`ae``efaeeeaeeemeaaeemm",
"`ea`e`ae`eaa`ef`eamememmeamaemme",
"aaa```aaaa```f`eamaeeemaameeemea",
"``aaaaaaaa`eef`feeaammmaaaemmmem",
"e`ae`eaaaa```f`eaemaeaaaaaeeeaem",
"e```e`aaaaaa`ee`aeeeaeaaaaamemae",
"ffe``eaaaaae``eeaameeamaaaaaeeaa",
"``ee`aaaaaa`e```eeaaemaaaaaeaeee",
"fe`e```aaaae`ea`ameaeeeaaaaaeame",
"ae`eee`aaaaaaaa`aaemamemaaaaamae"
};
