/* XPM */
static const char *GROUP_xpm[] = {
/* width height num_colors chars_per_pixel */
"    32    16       16            1",
/* colors */
"` c #000000",
". c #800000",
"# c #008000",
"a c #808000",
"b c #000080",
"c c #800080",
"d c #008080",
"e c #7f7f7f",
"f c #bfbfbf",
"g c #ff0000",
"h c #00ff00",
"i c #ffff00",
"j c #0000ff",
"k c #ff00ff",
"l c #00ffff",
"m c #ffffff",
/* pixels */
"aaaaa`````aaaaaaaaaaaeeeeeaaaaaa",
"aaa``aaaaa``aaaaaaaeeammmmeeaaaa",
"aa`aaaaaaaaa`aaaaaeammaaaaameaaa",
"a``````aaaaaa`aaaeeeeeeaaaaaaeaa",
"a``ggg`aa```a`aaaeeeeeemaeeeaema",
"`a`ggg`a`eie`a`aeaeeeeemeeeeeaea",
"`a`ggg`a`iii`a`aemeeeeemeeeeemem",
"`a`````a`eie`a`aemeeeeemeeeeemem",
"`aaaaaa`a```aa`aemammmmeaeeemmem",
"`aaaaa`j`aaaaa`aemaaaaeeeammmaem",
"a`aaa`jjj`aaa`aaaeaaaeeeeeaaaeam",
"a`aa```````aa`aaaemaeeeeeeeaaema",
"aa`aaaaaaaaa`aaaaaeaammmmmmmeama",
"aaa``aaaaa``aaaaaaaeeaaaaaeeamaa",
"aaaaa`````aaaaaaaaaameeeeeammaaa",
"aaaaaaaaaaaaaaaaaaaaaammmmmaaaaa"
};
