/* XPM */
static const char *HIDE_xpm[] = {
/* width height num_colors chars_per_pixel */
"    32    16       16            1",
/* colors */
"` c #000000",
". c #800000",
"# c #008000",
"a c #808000",
"b c #000080",
"c c #800080",
"d c #008080",
"e c #7f7f7f",
"f c #bfbfbf",
"g c #ff0000",
"h c #00ff00",
"i c #ffff00",
"j c #0000ff",
"k c #ff00ff",
"l c #00ffff",
"m c #ffffff",
/* pixels */
"aaaa`````````aaaaaaaeeeeeeeeeaaa",
"aaaa`mmmmmmm``aaaaaaemmmmmmmeeaa",
"``a``````mmm`m`aeeaeeeeeeaaaemea",
"l``mimimi`mm`mm`eeeammmmmeaaemae",
"l`mimi`````m````eemmaaeeeeeaeeee",
"l`imimimimi`mmm`eemaaaammmmeamme",
"l`mimi```````mm`eemaaaeeeeeeeaae",
"l`imimimimi`m`m`eemaaaammmmemeae",
"l`mi````````im``eemaeeeeeeeemaee",
"```mimi`m`mi`im`eeeaammememmeaae",
"aaa`````im`mimi`ammeeeeemaeaamae",
"aaaa`mmm`imimim`aaaaemmmeaamaaae",
"aaaa`mm```imimi`aaaaemaeeeaaaaae",
"aaaa`m`imi`imi`laaaaemeammeaaaee",
"aaaa`mm``mimi`llaaaaemaeeaamaeee",
"aaaa`````````lllaaaaeeeeeeeeeeee"
};
