/* XPM */
static const char *HOURGLAS_xpm[] = {
/* width height num_colors chars_per_pixel */
"    32    16       16            1",
/* colors */
"` c #000000",
". c #800000",
"# c #008000",
"a c #808000",
"b c #000080",
"c c #800080",
"d c #008080",
"e c #7f7f7f",
"f c #bfbfbf",
"g c #ff0000",
"h c #00ff00",
"i c #ffff00",
"j c #0000ff",
"k c #ff00ff",
"l c #00ffff",
"m c #ffffff",
/* pixels */
"abbbbbbbbbbbbbaaaeeeeeeeeeeeeeaa",
"abjjjjjjjjjjjbaaaeeeeeeeeeeeeema",
"abbbfffffffbbbaaaeeemmmmmmmeeema",
"aaa`ffff.me`aaaaaamemaaaeeeemmma",
"aaa`ff.imie`aaaaaaaemaeaemeemaaa",
"aaaa`.i.m.`aaaaaaaaaeeaeeeemmaaa",
"aaaaa`.m.`aaaaaaaaaaaeeeeemmaaaa",
"aaaaaa`f`aaaaaaaaaaaaaeeemmaaaaa",
"aaaaa`fie`aaaaaaaaaaaeameeaaaaaa",
"aaaa`ff.me`aaaaaaaaaeameameaaaaa",
"aaa`fffimee`aaaaaaaeamaamaaeaaaa",
"aaa`fff.mme`aaaaaaaemaaeaaaemaaa",
"abbbff.i.ffbbbaaaeeemaeaeaaeeeaa",
"abjjjjjjjjjjjbaaaeeeeeeeeeeeeema",
"abbbbbbbbbbbbbaaaeeeeeeeeeeeeema",
"aaaaaaaaaaaaaaaaaammmmmmmmmmmmma"
};
