/* XPM */
static const char *IMPORT_xpm[] = {
/* width height num_colors chars_per_pixel */
"    32    16       16            1",
/* colors */
"` c #000000",
". c #800000",
"# c #008000",
"a c #808000",
"b c #000080",
"c c #800080",
"d c #008080",
"e c #7f7f7f",
"f c #bfbfbf",
"g c #ff0000",
"h c #00ff00",
"i c #ffff00",
"j c #0000ff",
"k c #ff00ff",
"l c #00ffff",
"m c #ffffff",
/* pixels */
"aaa`aaaaaaaaaaaaaaaeaaaaaaaaaaaa",
"aaag`aaaaaaaaaaaaaaeeaaaaaaaaaaa",
"aaagg`aaaaaaaaaaaaaeeeaaaaaaaaaa",
"`ggggg``````aaaaeeeeeeeeeeeeaaaa",
"`gggggg`mmm``aaaeeeeeeeemmmeeaaa",
"`ggggggg`fm`m`aaeeeeeeeeeaaemeaa",
"`gggggg`mmm`mm`aeeeeeeeemmaemaea",
"`ggggg`m``m`````eeeeeeemeeaeeeee",
"aaagg``mmmmmmmm`ammeeeemammammme",
"aaag`a`m`f``m`m`aaaeememeaeeaeae",
"aaa`aa`mmmmmmmm`aaaemmemamammame",
"aaaaaa`m``m```m`aaaamaemeeaeeeae",
"aaaaaa`mmmmmmmm`aaaaaaemammammme",
"aaaaaa`mmmmmmmm`aaaaaaemaaaaaaae",
"aaaaaa``````````aaaaaaeeeeeeeeee",
"aaaaaaaaaaaaaaaaaaaaaaammmmmmmmm"
};
