/* XPM */
static const char *KEY_xpm[] = {
/* width height num_colors chars_per_pixel */
"    32    16       16            1",
/* colors */
"` c #000000",
". c #800000",
"# c #008000",
"a c #808000",
"b c #000080",
"c c #800080",
"d c #008080",
"e c #7f7f7f",
"f c #bfbfbf",
"g c #ff0000",
"h c #00ff00",
"i c #ffff00",
"j c #0000ff",
"k c #ff00ff",
"l c #00ffff",
"m c #ffffff",
/* pixels */
"ccce````ecccccccccceeeeeeccccccc",
"cc`eiiii`eccccccccecmmmmeecccccc",
"c`iiaaiii`cccccccecmcccccemccccc",
"eei``aiii`ccccccecmeeccccemccccc",
"`ii``aii`eccccccemceemccecmccccc",
"`iiiiiii`cccccccemccmmccemcccccc",
"`iiiiiiai`ccccccemcccccccecccccc",
"e`iii``iai`ccccceeccceeccceccccc",
"ce```c```ai`ccccceeeeceeeccecccc",
"cccccccc`iai`cccccmmmmcmemcceccc",
"cccccccc``iai`cccccccccceecccecc",
"ccccccccc```ai`cccccccccceeeccec",
"ccccccccccc`iai`ccccccccccmemcce",
"ccccccccccc```i`ccccccccccceeece",
"ccccccccccccc`i`ccccccccccccmeme",
"ccccccccccccc```ccccccccccccceee"
};
