/* XPM */
static const char *LIBRARY_xpm[] = {
/* width height num_colors chars_per_pixel */
"    32    16       16            1",
/* colors */
"` c #000000",
". c #800000",
"# c #008000",
"a c #808000",
"b c #000080",
"c c #800080",
"d c #008080",
"e c #7f7f7f",
"f c #bfbfbf",
"g c #ff0000",
"h c #00ff00",
"i c #ffff00",
"j c #0000ff",
"k c #ff00ff",
"l c #00ffff",
"m c #ffffff",
/* pixels */
"ccccccccc```ccccccccccccceeecccc",
"ccccccccc`g`cccccccccccccememccc",
"ccccccccc```ccccccccccccceeemccc",
"ccccc`````g`ccccccccceeeeememccc",
"cce```jj``g`c```ccceeemmeememeee",
"cc`ia`````g`c`l`ccecmeeeeemememe",
"cc`ia`jj``g`c```ccemcemmeememeee",
"ceei``jj``g`c`l`ccemeemceemememe",
"c`iee`jj``g`c`l`cecmeemceemememe",
"c`i`c`jj``g`c`l`cemecemceemememe",
"eei`c`jj``g`c`l`cemememceemememe",
"`ieec`jj``g`c`l`ecmememceemememe",
"`i`cc```````c`l`emecmeeeeeeememe",
"`i`cc`jj``g`c`l`ememcemmeemememe",
"``ecc```````c```eecmceeeeeeemeee",
"cccccccccccccccccmmcccmmmmmmmcmm"
};
