/* XPM */
static const char *LINKS_xpm[] = {
/* width height num_colors chars_per_pixel */
"    32    16       16            1",
/* colors */
"` c #000000",
". c #800000",
"# c #008000",
"a c #808000",
"b c #000080",
"c c #800080",
"d c #008080",
"e c #7f7f7f",
"f c #bfbfbf",
"g c #ff0000",
"h c #00ff00",
"i c #ffff00",
"j c #0000ff",
"k c #ff00ff",
"l c #00ffff",
"m c #ffffff",
/* pixels */
"aaaaaaaaaaa````aaaaaaaaaaaaeeeea",
"aaaaaaaaaa`eeee`aaaaaaaaaaeeeeee",
"aaaa``aa````aa``aaaaeeaaeeeemmee",
"aaa`ee```a`eeee`aaaeeeeeemeeeeee",
"aa`ea`e`aaa````aaaeemeeemmaeeeem",
"a`eaaae``````aaaaeemmaeeeeeeemmm",
"a`e`ae``mmmm``aaaeeeaeeemmmmeeaa",
"aa``e`a`m`fm`m`aaaeeeememeeaemea",
"aa```aa`mmmm`mm`aaeeemmemammemae",
"aa`aaaa`m``m````aaemmmaemeeaeeee",
"a```aaa`mmmmmmm`aeeeaaaemammamme",
"`e`e`aa`m````mm`eeeeeaaemeeeeaae",
"`eae`aa`mmmmmmm`eemeemaemammmmae",
"`eae`aa`m``m``m`eemeemaemeeaeeae",
"`e`e`aa`mmmmmmm`eeeeemaemammamme",
"a```aaa`````````aeeemmaeeeeeeeee"
};
