/* XPM */
static const char *LOCKOPEN_xpm[] = {
/* width height num_colors chars_per_pixel */
"    32    16       16            1",
/* colors */
"` c #000000",
". c #800000",
"# c #008000",
"a c #808000",
"b c #000080",
"c c #800080",
"d c #008080",
"e c #7f7f7f",
"f c #bfbfbf",
"g c #ff0000",
"h c #00ff00",
"i c #ffff00",
"j c #0000ff",
"k c #ff00ff",
"l c #00ffff",
"m c #ffffff",
/* pixels */
"aaaiaa`````aaaaaaaaaaaeeeeeaaaaa",
"aaaia`fffff`aaaaaaaaaeammmmeaaaa",
"iaaieef```feeaaaaaaaeameeeaaeaaa",
"aiai`f`aaa`f`aaaaaaaemeammeaemaa",
"aaii`f`aaa`f`aaaaaaaememaaememaa",
"iiiie`eiia`f`aaaaaaaaeamaaememaa",
"aaiiiiaaaa`f`aaaaaaaaamaaaememaa",
"aia```````````aaaaaeeeeeeeeeeeaa",
"ia`fffffffffff`aaaeammmmmmmmmmea",
"aa`eeee```eeee`aaaemaaaeeeaaaaem",
"aa`ffff```ffff`aaaemaaaeeemaaaem",
"aa`eeeff`ffeee`aaaemaaaaemmaaaem",
"aa`ffffe`effff`aaaemaaaaemaaaaem",
"aaa`eefe`efee`aaaaaeaaaaemaaaeam",
"aaaa``fffff``aaaaaaaeeaaamaeeama",
"aaaaaa`````aaaaaaaaaameeeeeammaa"
};
