/* XPM */
static const char *MAILPICT_xpm[] = {
/* width height num_colors chars_per_pixel */
"    32    16       16            1",
/* colors */
"` c #000000",
". c #800000",
"# c #008000",
"a c #808000",
"b c #000080",
"c c #800080",
"d c #008080",
"e c #7f7f7f",
"f c #bfbfbf",
"g c #ff0000",
"h c #00ff00",
"i c #ffff00",
"j c #0000ff",
"k c #ff00ff",
"l c #00ffff",
"m c #ffffff",
/* pixels */
"aaaaaa``````````aaaaaaeeeeeeeeee",
"aaaaaa`llllllll`aaaaaaemmmmmmmme",
"aaaaaa`llll``ll`aaaaaaemaaaeeaae",
"aaaaaa`llll``ll`aaaaaaemaaaeemae",
"aaaae``lll``lll`aaaaaeemaaeemmae",
"aae`em`ll````ll`aaaeeaemaeeeeaae",
"a`elll`l`l``l`l`aeeammemeaeemeae",
"`eeeee`ll```lll`eeeeeeemaeeemame",
"``elll`ii`i`iii`eemmmmemaememaae",
"`me`em`ii`i``ii`emeeaaemaemeeaae",
"`mmme``i``ii``i`emameeemeemaeeae",
"`mmmmm`iiiiiiii`emaaamemammaamme",
"`mmmee``````````emaaeeeeeeeeeeee",
"`meemmmmmmmmeem`emeeammmmmmmeeme",
"`emmmmmmmmmmmme`eeammaaaaaaaamee",
"a```````````````aeeeeeeeeeeeeeee"
};
