/* XPM */
static const char *MAILBOXF_xpm[] = {
/* width height num_colors chars_per_pixel */
"    32    16       16            1",
/* colors */
"` c #000000",
". c #800000",
"# c #008000",
"a c #808000",
"b c #000080",
"c c #800080",
"d c #008080",
"e c #7f7f7f",
"f c #bfbfbf",
"g c #ff0000",
"h c #00ff00",
"i c #ffff00",
"j c #0000ff",
"k c #ff00ff",
"l c #00ffff",
"m c #ffffff",
/* pixels */
"cc```ecccccccccccceeeecccccccccc",
"c`ffff`ecccccccccecmmmeecccccccc",
"`fgggfff`ecccccceceeeccmeecccccc",
"`fgggffff```ccccemeeemccceeecccc",
"`fffgff``eee`cccemcmemceecmmeccc",
"`fffgf``e`e`e`ccemccemeemecececc",
"`fffgf`m`m`me`ccemccemeememememc",
"`fff`f`m`m`me`ccemccemeememememc",
"`fffff`m`m`me`ccemcccmeememememc",
"``efff`m`m`me`cceeeccceememememc",
"cc``ef`m`m`me`cccmeeeceememememc",
"cc`a``````````ccccemeeeeeeeeeemc",
"cc`ia`````````ccccemceeeeeeeeemc",
"cc`ia`c`ffffff`cccemcememmmmmmec",
"cc`ia`cc`ffffff`ccemcemcecccccce",
"cc`ia`ccc```````ccemcemcceeeeeee"
};
