/* XPM */
static const char *MANY2MNY_xpm[] = {
/* width height num_colors chars_per_pixel */
"    32    16       16            1",
/* colors */
"` c #000000",
". c #800000",
"# c #008000",
"a c #808000",
"b c #000080",
"c c #800080",
"d c #008080",
"e c #7f7f7f",
"f c #bfbfbf",
"g c #ff0000",
"h c #00ff00",
"i c #ffff00",
"j c #0000ff",
"k c #ff00ff",
"l c #00ffff",
"m c #ffffff",
/* pixels */
"aaaa`````````aamaaaaeeeeeeeeeaaa",
"aaaa`lll`aa```mmaaaaemmmemmeeeaa",
"aa`````l`aa```mmaaeeeeeaemaeeema",
"aa`lll`l`aa```mmaaemmmememaeeema",
"`````l``````````eeeeeaeeeaeeeeee",
"`lll`l`aaa`````memmmememmmeeeeem",
"`lll```aamm```mmemaaeeemaaaeeemm",
"`lll`aa```mm`mmmemaaemmeeeaaemma",
"`````a`eie`mmmmmeeeeemeammeaamaa",
"aaaaaa`iii`mmmmmammmmmemaaemaaaa",
"aaaaam`eie`mmmmmaaaaaaemaaemaaaa",
"aaaammm```m`````aaaaaameeeaeeeee",
"aaammm`mmmm`ggg`aaaaameammmemmme",
"aammm`j`mmm`ggg`aaaameaeaaaemaae",
"ammm`jjj`mm`ggg`aaameamaeaaemaae",
"amm```````m`````aameeeeeeeaeeeee"
};
