/* XPM */
static const char *MOUSE_xpm[] = {
/* width height num_colors chars_per_pixel */
"    32    16       16            1",
/* colors */
"` c #000000",
". c #800000",
"# c #008000",
"a c #808000",
"b c #000080",
"c c #800080",
"d c #008080",
"e c #7f7f7f",
"f c #bfbfbf",
"g c #ff0000",
"h c #00ff00",
"i c #ffff00",
"j c #0000ff",
"k c #ff00ff",
"l c #00ffff",
"m c #ffffff",
/* pixels */
"aaaae`aaaaaaaaaaaaaeeaaaaaaaaaaa",
"aaaaae`aaa```eaaaaameeaaaeeeeaaa",
"aaaaaae`a`eaa`eaaaaameeaeemmeeaa",
"aaaaaaaa`eaaaa`aaaaaameeemaaaema",
"aaaaaaaa`aaaaa`aaaaaaamemaaaaema",
"aaaaaaa`a`aaa`eaaaaaaaeaeaaaeema",
"aaaaaaa`aa```eaaaaaaaaemaeeeemaa",
"aaaaa`````aaaaaaaaaaeeeeeammmaaa",
"aaaa`mmemm`aaaaaaaaeamemmeaaaaaa",
"aaaa`mmemm`aaaaaaaaemaemaemaaaaa",
"aaaa`eeeee`aaaaaaaaeeeeeeemaaaaa",
"aaaa`mmmmm`aaaaaaaaemmmmmemaaaaa",
"aaaa`mmmmm`aaaaaaaaemaaaaemaaaaa",
"aaaa`mmmmm`aaaaaaaaemaaaaemaaaaa",
"aaaaa`mmm`aaaaaaaaaaeaaaeamaaaaa",
"aaaaaa```aaaaaaaaaaaaeeeamaaaaaa"
};
