/* XPM */
static const char *NPADWRIT_xpm[] = {
/* width height num_colors chars_per_pixel */
"    32    16       16            1",
/* colors */
"` c #000000",
". c #800000",
"# c #008000",
"a c #808000",
"b c #000080",
"c c #800080",
"d c #008080",
"e c #7f7f7f",
"f c #bfbfbf",
"g c #ff0000",
"h c #00ff00",
"i c #ffff00",
"j c #0000ff",
"k c #ff00ff",
"l c #00ffff",
"m c #ffffff",
/* pixels */
"`c`c`c`c`ccc`cccecececececcceccc",
"c`e`e`e`e`c`g`cccecececececeeecc",
"c`e`e`e`e``i`ccccememememeecemmc",
"``m`m`m`m`i`cccceemememememecmcc",
"`mmmmmmm`i`cccccemmcmcmcececmccc",
"`mlllll`i````cccemccccceceeeeccc",
"`mmmmm`i``imi```emcccceceemmmeee",
"`mlll```````mi`lemccceeeeeeeccee",
"`mmm`mimimimim`lemccecmmmmmmmcee",
"`ml`i`````mimi`lemceceeeeeccccee",
"`mm``m`mimimim`lemceecemmmmcccee",
"`m`llll```mimi`lemecmmceeeccccee",
"`mmmmmm`imimi``lemcmcccemmmcceee",
"`mllllll`````c``emcccccceeeeecee",
"`mmmmmmmmm`cccccemcccccccmemmmcm",
"c`````````ccccccceeeeeeeeecmcccc"
};
