/* XPM */
static const char *NPADTAB_xpm[] = {
/* width height num_colors chars_per_pixel */
"    32    16       16            1",
/* colors */
"` c #000000",
". c #800000",
"# c #008000",
"a c #808000",
"b c #000080",
"c c #800080",
"d c #008080",
"e c #7f7f7f",
"f c #bfbfbf",
"g c #ff0000",
"h c #00ff00",
"i c #ffff00",
"j c #0000ff",
"k c #ff00ff",
"l c #00ffff",
"m c #ffffff",
/* pixels */
"cc`c`c`c`c`c``ccccecececececeecc",
"e`e`e`e`e`e`cc`ccececececececmec",
"``e`e`e`e`e````ceeeeeeeeeeeeeeem",
"``m`m`m`m`m`m``ceememememememeem",
"`mmmmmmmmmm`m`m`emmcmcmcmcmememe",
"`meemeeemmm`m`m`emeeceeecccememe",
"`mmmmmmmmmm`m`m`emcmmcmmmccememe",
"`meemeememm`m`m`emeeceececcememe",
"`mmmmmmmmmm`m`m`emcmmcmmcmcememe",
"`mmmmmmmmmm`m`m`emcccccccccememe",
"`mmmmmmmmmm`m`m`emcccccccccememe",
"`gggg```````m`m`emccceeeeeeememe",
"`ggg`eeeeeeee`m`eeeeecmmmmmmmeme",
"c```c`lll```eee`ceeeceeeeeeeecme",
"cccccc```c`iii`cccmmmceeeceeeeec",
"ccccccccccc```cccccccccmmmceeecm"
};
