/* XPM */
static const char *PAGENUM_xpm[] = {
/* width height num_colors chars_per_pixel */
"    32    16       16            1",
/* colors */
"` c #000000",
". c #800000",
"# c #008000",
"a c #808000",
"b c #000080",
"c c #800080",
"d c #008080",
"e c #7f7f7f",
"f c #bfbfbf",
"g c #ff0000",
"h c #00ff00",
"i c #ffff00",
"j c #0000ff",
"k c #ff00ff",
"l c #00ffff",
"m c #ffffff",
/* pixels */
"a``````````aaaaaaeeeeeeeeeeaaaaa",
"a`mmmmmmmm``aaaaaemmmmmmmmeeaaaa",
"a`gggggggg`m`aaaaeeeeeeeeeemeaaa",
"a`mmmmmmmm`mm`aaaemmmmmmmmemaeaa",
"a`mmmmmmmm````aaaemaaaaaaaeeeema",
"a`mmmmmmmmmmm`aaaemaaaaaaaammema",
"a`mmmm`mmm`mm`aaaemaaaeaaaeaaema",
"a`mmmm`mmm`mm`aaaemaaaemaaemaema",
"a`mm````````m`aaaemaeeeeeeeeaema",
"a`mmm`mmm`mmm`aaaemaaemmmemmmema",
"a`mmm`mmm`mmm`aaaemaaemaaemaaema",
"a`m````````mm`aaaemeeeeeeeeaaema",
"a`mm`mmm`mmmm`aaaemaemmmemmmaema",
"a`mm`mmm`mmmm`aaaemaemaaemaaaema",
"a`mmmmmmmmmmm`aaaemaamaaamaaaema",
"a`````````````aaaeeeeeeeeeeeeema"
};
