/* XPM */
static const char *PICTURE_xpm[] = {
/* width height num_colors chars_per_pixel */
"    32    16       16            1",
/* colors */
"` c #000000",
". c #800000",
"# c #008000",
"a c #808000",
"b c #000080",
"c c #800080",
"d c #008080",
"e c #7f7f7f",
"f c #bfbfbf",
"g c #ff0000",
"h c #00ff00",
"i c #ffff00",
"j c #0000ff",
"k c #ff00ff",
"l c #00ffff",
"m c #ffffff",
/* pixels */
"aallllllllllllaaaaeeeeeeeeeeeeea",
"aallllllllllllaaaaemmmmmmmmmmmem",
"aallllll``llllaaaaemaaaaeeaaaaem",
"aallllll``llllaaaaemaaaaeemaaaem",
"aalllll``lllllaaaaemaaaeemmaaaem",
"aallll```lllllaaaaemaaeeemaaaaem",
"aalll`f``lllllaaaaemaeaeemaaaaem",
"aall`lf````lllaaaaemeameeeeaaaem",
"aallll```lllllaaaaemameeemmmaaem",
"aaiiii```iiiiiaaaaemaaeeemaaaaem",
"aaiiii`i``iiiiaaaaemaaemeeaaaaem",
"aaiii``ii``iiiaaaaemaeemaeeaaaem",
"aaiii`iiii```iaaaaemaemmaaeeeaem",
"aaii`iiiiii`iiaaaaemeamaaaaemmem",
"aaii``iiiiiiiiaaaaemeeaaaaaamaem",
"aaiiiiiiiiiiiiaaaaeeeeeeeeeeeeem"
};
