/* XPM */
static const char *RESOURCE_xpm[] = {
/* width height num_colors chars_per_pixel */
"    32    16       16            1",
/* colors */
"` c #000000",
". c #800000",
"# c #008000",
"a c #808000",
"b c #000080",
"c c #800080",
"d c #008080",
"e c #7f7f7f",
"f c #bfbfbf",
"g c #ff0000",
"h c #00ff00",
"i c #ffff00",
"j c #0000ff",
"k c #ff00ff",
"l c #00ffff",
"m c #ffffff",
/* pixels */
"aaaaaaaaaa`aaaaaaaaaaaaaaaeaaaaa",
"aaaaaaaaa`j`aaaaaaaaaaaaaeeeaaaa",
"aaaaaaaa`jjj`aaaaaaaaaaaeeeeeaaa",
"`````aa```````aaeeeeeaaeeeeeeeaa",
"`ggg`aaaaaaaaaaaeeeeemaammmmmmma",
"`ggg`a``````aaaaeeeeemeeeeeeaaaa",
"`ggg`a`mmmm``aaaeeeeememmmmeeaaa",
"`````a`m`fm`m`aaeeeeememeeaemeaa",
"aaaaaa`mmmm`mm`aammmmmemammemaea",
"aaaaaa`m``m````aaaaaaaemeeaeeeem",
"a```aa`mmmmmmm`aaeeeaaemammammem",
"`eie`a`m````mm`aeeeeeaemeeeeaaem",
"`iii`a`mmmmmmm`aeeeeememammmmaem",
"`eie`a`m``m``m`aeeeeememeeaeeaem",
"a```aa`mmmmmmm`aaeeemmemammammem",
"aaaaaa`````````aaammmaeeeeeeeeem"
};
