/* XPM */
static const char *SHOW_xpm[] = {
/* width height num_colors chars_per_pixel */
"    32    16       16            1",
/* colors */
"` c #000000",
". c #800000",
"# c #008000",
"a c #808000",
"b c #000080",
"c c #800080",
"d c #008080",
"e c #7f7f7f",
"f c #bfbfbf",
"g c #ff0000",
"h c #00ff00",
"i c #ffff00",
"j c #0000ff",
"k c #ff00ff",
"l c #00ffff",
"m c #ffffff",
/* pixels */
"llll`````````aaaeeeeeeeeeeeeeaaa",
"lll`imim``mm``aaeeeemmmmeemmeeaa",
"ll`imi`imi`m`m`aeeemmaeaameaemea",
"l`imimi```mm`mm`eemmaaaeeeamemae",
"``mimimi`mmm````eemaaaaaemmaeeee",
"a`imim`mi`mmmmm`aemaaaeaaeaaamme",
"a`mimim`mi`mmmm`aemaaaaeaaeaaaae",
"aa`mi`im`mi`m`m`aaeaaeaaeaaeaeae",
"aaa`mi``m`m`mmm`aaaeaaeeaeaemame",
"aaaa``mmmm``m`m`aaaaeeammaeemeae",
"aaaa`mmmmmmmmmm`aaaaemmaaaammame",
"aaaa`m``m``m``m`aaaaemeeaeeaeeae",
"aaaa`mmmmmmmmmm`aaaaemammammamme",
"aaaa`m```m`m``m`aaaaemeeeaeaeeae",
"aaaa`mmmmmmmmmm`aaaaemammmamamme",
"aaaa````````````aaaaeeeeeeeeeeee"
};
