/* XPM */
static const char *SORT_xpm[] = {
/* width height num_colors chars_per_pixel */
"    32    16       16            1",
/* colors */
"` c #000000",
". c #800000",
"# c #008000",
"a c #808000",
"b c #000080",
"c c #800080",
"d c #008080",
"e c #7f7f7f",
"f c #bfbfbf",
"g c #ff0000",
"h c #00ff00",
"i c #ffff00",
"j c #0000ff",
"k c #ff00ff",
"l c #00ffff",
"m c #ffffff",
/* pixels */
"ggajjaa`mmmggmggeeaeeaaeaaaeeaee",
"ggajjaa`mmmggmggeemeemaemaaeemee",
"aaggaaa`mggmggmmameemmaemeeaeeam",
"jjggaaa```gmggmmeeeemaaeeeemeema",
"jjaaaa`im``mmmggeemmmaeameemamee",
"aa``a`im`m`mmmggameeaeameaemaaee",
"a`mi`im`mi`mmmmmaeameameamemaaam",
"a`i`im`mi```````aemeameameeeeeee",
"a`mimimi`i`mmmmmaemamaameaemmmmm",
"a`imimimim`mjjmmaemaaaaaamemeeaa",
"`l`imimim`mmjjmmeeeaaaaaaeameema",
"lll`imim`mmmmjjmeeeeaaaaeamaaeea",
"`lll````mmmmmjjmeeeeeeeeamaaaeem",
"a`lll`a`mmmjjmjjaeeeeememaaeeaee",
"aa`l`aa`mmmjjmjjaaeeemmemaaeemee",
"aaaaaaaaaaaaaaaaaaammmaamaaammam"
};
