/* XPM */
static const char *SOUND_xpm[] = {
/* width height num_colors chars_per_pixel */
"    32    16       16            1",
/* colors */
"` c #000000",
". c #800000",
"# c #008000",
"a c #808000",
"b c #000080",
"c c #800080",
"d c #008080",
"e c #7f7f7f",
"f c #bfbfbf",
"g c #ff0000",
"h c #00ff00",
"i c #ffff00",
"j c #0000ff",
"k c #ff00ff",
"l c #00ffff",
"m c #ffffff",
/* pixels */
"aaaaaa```aaaagaaaaaaaaeeeaaaaeaa",
"aaaaa`f`e`aagaaaaaaaaeaemeaaeama",
"aaaa`feeeeaaaaagaaaaeamememaamae",
"aaa`ff`eef`aaagaaaaeameamaeaaaea",
"aaa`ff`eff`aagaaaaaemaemaaemaeam",
"a``fff``ff`agaaaaeeamaeeaaemeama",
"`f`fff`f`feaaaaaeaemaaemeaemamaa",
"`e`eee`f`feaggggememaaemememeeee",
"`e`fff`f`feaaaaaememaaemememammm",
"a``eee``ff`agaaaaeemaaeeamemeaaa",
"aaa`ee`fff`aagaaaameaaemmaemaeaa",
"aaa`ee`fff`aaagaaaaemaemaaemaaea",
"aaaa`e`efeaaaaagaaaaeaaeaeamaaae",
"aaaaa```f`aagaaaaaaaaeaememaeaaa",
"aaaaaa```aaaagaaaaaaaaeeeamaaeaa",
"aaaaaaaaaaaaaaaaaaaaaaammmaaaama"
};
