/* XPM */
static const char *STPWATCH_xpm[] = {
/* width height num_colors chars_per_pixel */
"    32    16       16            1",
/* colors */
"` c #000000",
". c #800000",
"# c #008000",
"a c #808000",
"b c #000080",
"c c #800080",
"d c #008080",
"e c #7f7f7f",
"f c #bfbfbf",
"g c #ff0000",
"h c #00ff00",
"i c #ffff00",
"j c #0000ff",
"k c #ff00ff",
"l c #00ffff",
"m c #ffffff",
/* pixels */
"aaaaaaa```aaaaaaaaaaaaeeeaaaaaaa",
"aaaaaaaa`aaaaaaaaaaaaaaemmaaaaaa",
"aae`a`e```e`a`eaaaeaeeeeeeeaeaaa",
"aa````emgme````aaeeeemmemmeeeeaa",
"aaa``mmmgmmm``aaaaeemmaemaaeemma",
"aa``m`mmgmm`m``aaeemeaaemaeaeeaa",
"ae`emm`mgmmmme`eaemmaeaemaamaema",
"a``mmmm`gmmmmm``eemaaaeemaaaaeea",
"a`e`emmm`mmme`e`emeaaaaemaaaeaem",
"a``mmmmm`mmmmm``eeamaaaemaaaaeem",
"ae`emmmm`mmmme`eaemaaaaemaaaaemm",
"aa``m`mmmmm`m``aaeeaeaaamaeaeema",
"aaa``mmmemmm``aaaaeeamaaaaaeemma",
"aaaa``em`me``aaaaaaeeaaeaaeemmaa",
"aaaaae`````eaaaaaaaameeeeeammaaa",
"aaaaaaaaaaaaaaaaaaaaaammmmmaaaaa"
};
