/* XPM */
static const char *TIME_xpm[] = {
/* width height num_colors chars_per_pixel */
"    32    16       16            1",
/* colors */
"` c #000000",
". c #800000",
"# c #008000",
"a c #808000",
"b c #000080",
"c c #800080",
"d c #008080",
"e c #7f7f7f",
"f c #bfbfbf",
"g c #ff0000",
"h c #00ff00",
"i c #ffff00",
"j c #0000ff",
"k c #ff00ff",
"l c #00ffff",
"m c #ffffff",
/* pixels */
"a``````````aaaaaaeeeeeeeeeeaaaaa",
"a`mmmmmmmm``aaaaaemmmmmmmmeeaaaa",
"a`gggggggg`m`aaaaeeeeeeeeeemeaaa",
"a`mmmmmmmm`mm`aaaemmmmmmmmemaeaa",
"a`mmmmmmmm````aaaemaaaaaaaeeeema",
"a`mmme```emmm`aaaemaaeeeeeammema",
"a`mm`fm`mf`mm`aaaemaeamemmeaaema",
"a`mefmm`mmfem`aaaemeamaemaaeaema",
"a`m`mmm`mmm`m`aaaememaaemaaemema",
"a`m`mmmg``m`m`aaaememaaeeeaemema",
"a`m`mmmmmmm`m`aaaememaaammmemema",
"a`mefmmmmmfem`aaaememaaaaaaemema",
"a`mm`fmmmf`mm`aaaemaeaaaaaeamema",
"a`mmme```emmm`aaaemaaeeeeeamaema",
"a`mmmmmmmmmmm`aaaemaaammmmmaaema",
"a`````````````aaaeeeeeeeeeeeeema"
};
