/* XPM */
static const char *TOOLS_xpm[] = {
/* width height num_colors chars_per_pixel */
"    32    16       16            1",
/* colors */
"` c #000000",
". c #800000",
"# c #008000",
"a c #808000",
"b c #000080",
"c c #800080",
"d c #008080",
"e c #7f7f7f",
"f c #bfbfbf",
"g c #ff0000",
"h c #00ff00",
"i c #ffff00",
"j c #0000ff",
"k c #ff00ff",
"l c #00ffff",
"m c #ffffff",
/* pixels */
"ccaac`````cccccccceeceeeeecccccc",
"cca````eccce`eccccemeeeemmmceccc",
"cc`````cccce`ecccceeeeemmcccemcc",
"``````acccce`ecceeeeeeemccccemcc",
"`c```aaacccc`cccemeeemmeccccemcc",
"c`c`c`aaaccc`ccccecemecmecccemcc",
"cc``cc`aaacc`ccccceemmecmeccemcc",
"ccccccc`aaac`ccccccmmcmecmecemcc",
"cc```ecc`aaa`ccccceeeccmecmeemcc",
"cce`m`ecc`.....ccccemeccmeeeeeec",
"`ecc`m`cccgggggcecccececcmemmmem",
"``cc`m`ccccg.gaceeccememccmeceem",
"`m``mm`ccccg.gaaemeecmemcccememe",
"e`mmmm`ccccg.gaacecmmcemcccememm",
"ce```mm`cccg.g`acceeecmecccemeec",
"ccccc`mm`ccg.gc`cccmmecmeccememe"
};
