/* XPM */
static const char *TRASHFUL_xpm[] = {
/* width height num_colors chars_per_pixel */
"    32    16       16            1",
/* colors */
"` c #000000",
". c #800000",
"# c #008000",
"a c #808000",
"b c #000080",
"c c #800080",
"d c #008080",
"e c #7f7f7f",
"f c #bfbfbf",
"g c #ff0000",
"h c #00ff00",
"i c #ffff00",
"j c #0000ff",
"k c #ff00ff",
"l c #00ffff",
"m c #ffffff",
/* pixels */
"aaaaaaaaaaaaaaaaaaaaaaaaaaaaaaaa",
"aaaaa`````aaaaaaaaaaaeeeeeaaaaaa",
"aaaaa`eee`aaaaaaaaaaaemmmemaaaaa",
"aa```````````aaaaaeeeeeeeeeeeaaa",
"aa`mfffeeeee`aaaaaemmmmmmmmmemaa",
"aa```````````aaaaaeeeeeeeeeeemaa",
"aa`mm`f`e`ee`aaaaaemmemememmemaa",
"aa`mm`f`f`ee`aaaaaemaemememaemaa",
"a`mmeef`ef`ee`aaaeameamemaeaaeaa",
"``mm`ff`fe`ee``aeemaeaaemaemaeea",
"a`mm`ff`ef`ee`a`aemaemaemaemaeme",
"a`mmeef`fe`ee`aaaemaemaemaemaema",
"aa`mm`f`e`ee`aaaaaeaaeaemeameama",
"aa`mm`f`f`ee`aaaaaemaemememaemaa",
"aaa`meeeeee`aaaaaaaeaamamameamaa",
"aaa`````````aaaaaaaeeeeeeeeemaaa"
};
