/* XPM */
static const char *VCRRECRD_xpm[] = {
/* width height num_colors chars_per_pixel */
"    32    16       16            1",
/* colors */
"` c #000000",
". c #800000",
"# c #008000",
"a c #808000",
"b c #000080",
"c c #800080",
"d c #008080",
"e c #7f7f7f",
"f c #bfbfbf",
"g c #ff0000",
"h c #00ff00",
"i c #ffff00",
"j c #0000ff",
"k c #ff00ff",
"l c #00ffff",
"m c #ffffff",
/* pixels */
"lllllllllllllllaaaaaaaaaaaaaaaaa",
"l`````````````laaeeeeeeeeeeeeeaa",
"l`mmmmmmmmmmm`laaemmmmmmmmmmmema",
"l`maaaaaaaaae`laaemaaaaaaaaaaema",
"l`maaaaaaaaae`laaemaaaaaaaaaaema",
"l`maae```eaae`laaemaaaeeeaaaaema",
"l`maa`````aae`laaemaaeeeeeaaaema",
"l`maa`````aae`laaemaaeeeeemaaema",
"l`maa`````aae`laaemaaeeeeemaaema",
"l`maae```eaae`laaemaaaeeemmaaema",
"l`maaaaaaaaae`laaemaaaammmaaaema",
"l`maaaaaaaaae`laaemaaaaaaaaaaema",
"l`meeeeeeeeee`laaemaaaaaaaaaaema",
"l`````````````laaeeeeeeeeeeeeema",
"lllllllllllllllaaammmmmmmmmmmmma",
"aaaaaaaaaaaaaaaaaaaaaaaaaaaaaaaa"
};
