/* XPM */
static const char *VIDEO_xpm[] = {
/* width height num_colors chars_per_pixel */
"    32    16       16            1",
/* colors */
"` c #000000",
". c #800000",
"# c #008000",
"a c #808000",
"b c #000080",
"c c #800080",
"d c #008080",
"e c #7f7f7f",
"f c #bfbfbf",
"g c #ff0000",
"h c #00ff00",
"i c #ffff00",
"j c #0000ff",
"k c #ff00ff",
"l c #00ffff",
"m c #ffffff",
/* pixels */
"aa`aaaaaaaaaaaaaaaeaaaaaaaaaaaaa",
"a`f`aaaaaaaaaaaaaeaeaaaaaaaaaaaa",
"`ff`aaaaaaaaaaaaeamemaaaaaaaaaaa",
"a``f`aaaaaaaaaaaaeeaeaaaaaaaaaaa",
"aaa`f`aaaaaaaaaaaameaeaaaaaaaaaa",
"a````f````aaaa``aeeeeaeeeeaaaaee",
"`fff```fff`aa`f`eammeeemmmeaaeae",
"`eeeeeeeff```ff`emaaammmaaeeeame",
"`efffffeff`f`ff`emaaaaaaaaememae",
"`e````feff`e`ef`emeeeeaaaaememae",
"`efffffeff```ee`emammmmaaaeeemae",
"`eeeeeeeff`aa`f`emaaaaaaaaemmeae",
"`egehee```aaaa``emeaeaaeeeamaaee",
"`eeeee```````aaaemamameeeeeeeaam",
"a`````eeeeeee`aaaeeeeeammmmmmeaa",
"aaaaaa```````aaaaammmmeeeeeeeama"
};
